<svg width="30" height="31" viewBox="0 0 30 31" fill="none" xmlns="http://www.w3.org/2000/svg">
<path d="M25.3963 6.05068C23.4842 5.17332 21.4337 4.52693 19.2899 4.15671C19.2508 4.14957 19.2118 4.16742 19.1917 4.20314C18.928 4.67215 18.6359 5.28403 18.4314 5.76496C16.1255 5.41975 13.8315 5.41975 11.5729 5.76496C11.3683 5.27334 11.0656 4.67215 10.8007 4.20314C10.7806 4.16861 10.7416 4.15076 10.7026 4.15671C8.55989 4.52575 6.50945 5.17214 4.59617 6.05068C4.57961 6.05782 4.56541 6.06973 4.55599 6.0852C0.66674 11.8956 -0.398688 17.5633 0.123975 23.1606C0.12634 23.188 0.141712 23.2142 0.162998 23.2309C2.72901 25.1153 5.21463 26.2593 7.6541 27.0176C7.69314 27.0295 7.73451 27.0152 7.75935 26.9831C8.33641 26.195 8.8508 25.3641 9.29185 24.4903C9.31787 24.4392 9.29303 24.3784 9.23983 24.3582C8.42391 24.0487 7.647 23.6713 6.89966 23.2428C6.84055 23.2083 6.83582 23.1237 6.8902 23.0832C7.04747 22.9654 7.20477 22.8428 7.35494 22.719C7.38211 22.6964 7.41997 22.6916 7.45192 22.7059C12.3616 24.9475 17.6769 24.9475 22.5287 22.7059C22.5606 22.6904 22.5985 22.6952 22.6268 22.7178C22.7771 22.8416 22.9343 22.9654 23.0928 23.0832C23.1472 23.1237 23.1436 23.2083 23.0845 23.2428C22.3372 23.6796 21.5602 24.0487 20.7431 24.357C20.6899 24.3773 20.6663 24.4392 20.6923 24.4903C21.1428 25.3629 21.6572 26.1938 22.2236 26.9819C22.2473 27.0152 22.2898 27.0295 22.3289 27.0176C24.7802 26.2593 27.2658 25.1153 29.8318 23.2309C29.8543 23.2142 29.8685 23.1892 29.8708 23.1618C30.4964 16.6907 28.8231 11.0695 25.4353 6.08638C25.427 6.06973 25.4128 6.05782 25.3963 6.05068ZM10.025 19.7524C8.54687 19.7524 7.32892 18.3954 7.32892 16.7288C7.32892 15.0622 8.52325 13.7051 10.025 13.7051C11.5386 13.7051 12.7448 15.0741 12.7211 16.7288C12.7211 18.3954 11.5268 19.7524 10.025 19.7524ZM19.9934 19.7524C18.5153 19.7524 17.2974 18.3954 17.2974 16.7288C17.2974 15.0622 18.4917 13.7051 19.9934 13.7051C21.507 13.7051 22.7132 15.0741 22.6896 16.7288C22.6896 18.3954 21.507 19.7524 19.9934 19.7524Z" fill="white"/>
</svg>
