<svg width="31" height="32" viewBox="0 0 31 32" fill="none" xmlns="http://www.w3.org/2000/svg">
<path d="M15.4998 13.538V19.5407H23.8416C23.4752 21.4711 22.376 23.1058 20.7274 24.2048L25.7578 28.108C28.6888 25.4027 30.3797 21.429 30.3797 16.7086C30.3797 15.6095 30.2811 14.5526 30.0978 13.5381L15.4998 13.538Z" fill="#4285F4"/>
<path d="M6.81313 19.3064L5.67857 20.1749L1.6626 23.303C4.21305 28.3616 9.44039 31.8562 15.4994 31.8562C19.6843 31.8562 23.1929 30.4753 25.7575 28.1081L20.7271 24.2048C19.3462 25.1348 17.5848 25.6985 15.4994 25.6985C11.4695 25.6985 8.04546 22.979 6.81946 19.3153L6.81313 19.3064Z" fill="#34A853"/>
<path d="M1.66261 9.40937C0.605846 11.4947 0 13.848 0 16.3561C0 18.8642 0.605846 21.2175 1.66261 23.3028C1.66261 23.3168 6.81997 19.301 6.81997 19.301C6.50997 18.371 6.32674 17.3847 6.32674 16.3559C6.32674 15.3272 6.50997 14.3409 6.81997 13.4109L1.66261 9.40937Z" fill="#FBBC05"/>
<path d="M15.4997 7.028C17.7825 7.028 19.8116 7.81707 21.432 9.33891L25.8706 4.90033C23.1792 2.39219 19.6848 0.856186 15.4997 0.856186C9.4407 0.856186 4.21305 4.33663 1.6626 9.40938L6.8198 13.4112C8.04564 9.74752 11.4698 7.028 15.4997 7.028Z" fill="#EA4335"/>
</svg>
