<svg width="30" height="64" viewBox="0 0 30 64" fill="none" xmlns="http://www.w3.org/2000/svg">
<g clip-path="url(#clip0_69_257)">
<path d="M20.8238 7.13325C18.1258 3.94632 15.8026 0.709589 15.328 0.0373468C15.278 -0.0124489 15.203 -0.0124489 15.1531 0.0373468C14.6784 0.709589 12.3552 3.94632 9.65724 7.13325C-13.5001 36.5376 13.3045 56.3813 13.3045 56.3813L13.5293 56.5306C13.7292 59.5932 14.2288 64 14.2288 64H15.228H16.2273C16.2273 64 16.7269 59.618 16.9268 56.5306L17.1515 56.3565C17.1765 56.3565 43.9811 36.5376 20.8238 7.13325ZM15.228 55.933C15.228 55.933 14.0289 54.9123 13.7042 54.3893V54.3397L15.1531 22.3209C15.1531 22.2213 15.303 22.2213 15.303 22.3209L16.7519 54.3397V54.3893C16.4271 54.9123 15.228 55.933 15.228 55.933Z" fill="#00BD87"/>
</g>
<defs>
<clipPath id="clip0_69_257">
<rect width="29.7674" height="64" fill="white" transform="translate(0.232422)"/>
</clipPath>
</defs>
</svg>
