<svg width="43" height="65" viewBox="0 0 43 65" fill="none" xmlns="http://www.w3.org/2000/svg">
<g clip-path="url(#clip0_56_182)">
<path d="M21.6665 32.9775C21.6665 30.1485 22.7903 27.4354 24.7907 25.435C26.7911 23.4346 29.5042 22.3108 32.3332 22.3108C35.1621 22.3108 37.8753 23.4346 39.8756 25.435C41.876 27.4354 42.9998 30.1485 42.9998 32.9775C42.9998 35.8064 41.876 38.5195 39.8756 40.5199C37.8753 42.5203 35.1621 43.6441 32.3332 43.6441C29.5042 43.6441 26.7911 42.5203 24.7907 40.5199C22.7903 38.5195 21.6665 35.8064 21.6665 32.9775Z" fill="#1ABCFE"/>
<path d="M0.333008 54.311C0.333008 51.482 1.45681 48.7689 3.4572 46.7685C5.45759 44.7681 8.1707 43.6443 10.9997 43.6443H21.6663V54.311C21.6663 57.1399 20.5425 59.853 18.5421 61.8534C16.5418 63.8538 13.8287 64.9776 10.9997 64.9776C8.1707 64.9776 5.45759 63.8538 3.4572 61.8534C1.45681 59.853 0.333008 57.1399 0.333008 54.311Z" fill="#0ACF83"/>
<path d="M21.6665 0.977539V22.3109H32.3332C35.1621 22.3109 37.8753 21.1871 39.8756 19.1867C41.876 17.1863 42.9998 14.4732 42.9998 11.6442C42.9998 8.81523 41.876 6.10212 39.8756 4.10173C37.8753 2.10135 35.1621 0.977539 32.3332 0.977539L21.6665 0.977539Z" fill="#FF7262"/>
<path d="M0.333008 11.6442C0.333008 14.4732 1.45681 17.1863 3.4572 19.1867C5.45759 21.1871 8.1707 22.3109 10.9997 22.3109H21.6663V0.977539H10.9997C8.1707 0.977539 5.45759 2.10135 3.4572 4.10173C1.45681 6.10212 0.333008 8.81523 0.333008 11.6442Z" fill="#F24E1E"/>
<path d="M0.333008 32.9775C0.333008 35.8064 1.45681 38.5195 3.4572 40.5199C5.45759 42.5203 8.1707 43.6441 10.9997 43.6441H21.6663V22.3108H10.9997C8.1707 22.3108 5.45759 23.4346 3.4572 25.435C1.45681 27.4354 0.333008 30.1485 0.333008 32.9775Z" fill="#A259FF"/>
</g>
<defs>
<clipPath id="clip0_56_182">
<rect width="42.6667" height="64" fill="white" transform="translate(0.333008 0.977539)"/>
</clipPath>
</defs>
</svg>
