<svg width="64" height="72" viewBox="0 0 64 72" fill="none" xmlns="http://www.w3.org/2000/svg">
<g clip-path="url(#clip0_88_67)" filter="url(#filter0_d_88_67)">
<path d="M32.1212 64C31.2633 64 30.4625 63.7668 29.7189 63.3585L22.1116 58.7517C20.9676 58.1102 21.5396 57.877 21.8828 57.7603C23.4272 57.2355 23.7131 57.1189 25.3147 56.1858C25.4862 56.0692 25.715 56.1275 25.8866 56.2442L31.7208 59.8014C31.9496 59.918 32.2356 59.918 32.4072 59.8014L55.2292 46.3307C55.4579 46.214 55.5723 45.9808 55.5723 45.6892V18.806C55.5723 18.5145 55.4579 18.2812 55.2292 18.1646L32.4072 4.75222C32.1784 4.63559 31.8924 4.63559 31.7208 4.75222L8.89886 18.1646C8.67007 18.2812 8.55567 18.5728 8.55567 18.806V45.6892C8.55567 45.9224 8.67007 46.214 8.89886 46.3307L15.1334 50.0045C18.5081 51.7539 20.6244 49.7129 20.6244 47.6719V21.1386C20.6244 20.7887 20.9104 20.4389 21.3108 20.4389H24.2279C24.5711 20.4389 24.9142 20.7305 24.9142 21.1386V47.6719C24.9142 52.2788 22.4547 54.9613 18.1649 54.9613C16.8494 54.9613 15.8198 54.9613 12.9027 53.5033L6.89694 50.0045C5.4098 49.1297 4.49463 47.4969 4.49463 45.7475V18.8644C4.49463 17.115 5.4098 15.4822 6.89694 14.6074L29.7189 1.1367C31.1489 0.320298 33.0936 0.320298 34.5235 1.1367L57.3454 14.6074C58.8326 15.4822 59.7478 17.115 59.7478 18.8644V45.7475C59.7478 47.4969 58.8326 49.1297 57.3454 50.0045L34.5235 63.4752C33.8372 63.7668 32.9792 64 32.1212 64Z" fill="black"/>
<path d="M39.2138 45.5142C29.2041 45.5142 27.145 40.849 27.145 36.8836C27.145 36.5338 27.431 36.1839 27.8313 36.1839H30.8057C31.1488 36.1839 31.4349 36.4171 31.4349 36.767C31.8924 39.8577 33.208 41.3739 39.271 41.3739C44.0755 41.3739 46.1347 40.2659 46.1347 37.6417C46.1347 36.1256 45.5627 35.0176 38.0698 34.2594C31.8352 33.618 27.9458 32.2185 27.9458 27.1451C27.9458 22.4215 31.8352 19.6225 38.3558 19.6225C45.6771 19.6225 49.2805 22.1883 49.7381 27.7865C49.7381 27.9615 49.681 28.1364 49.5666 28.3114C49.4522 28.428 49.2805 28.5446 49.1089 28.5446H46.0775C45.7915 28.5446 45.5055 28.3114 45.4483 28.0198C44.7619 24.8125 42.9888 23.7628 38.2986 23.7628C33.0363 23.7628 32.4072 25.6289 32.4072 27.0284C32.4072 28.7196 33.1508 29.2444 40.2433 30.1775C47.2786 31.1105 50.5961 32.4517 50.5961 37.4668C50.5961 42.5985 46.4207 45.5142 39.2138 45.5142Z" fill="black"/>
</g>
<defs>
<filter id="filter0_d_88_67" x="-0.138184" y="0" width="64.3198" height="72" filterUnits="userSpaceOnUse" color-interpolation-filters="sRGB">
<feFlood flood-opacity="0" result="BackgroundImageFix"/>
<feColorMatrix in="SourceAlpha" type="matrix" values="0 0 0 0 0 0 0 0 0 0 0 0 0 0 0 0 0 0 127 0" result="hardAlpha"/>
<feOffset dy="4"/>
<feGaussianBlur stdDeviation="2"/>
<feComposite in2="hardAlpha" operator="out"/>
<feColorMatrix type="matrix" values="0 0 0 0 0 0 0 0 0 0 0 0 0 0 0 0 0 0 0.25 0"/>
<feBlend mode="normal" in2="BackgroundImageFix" result="effect1_dropShadow_88_67"/>
<feBlend mode="normal" in="SourceGraphic" in2="effect1_dropShadow_88_67" result="shape"/>
</filter>
<clipPath id="clip0_88_67">
<rect width="56.32" height="64" fill="white" transform="translate(3.86182)"/>
</clipPath>
</defs>
</svg>
