<svg width="58" height="65" viewBox="0 0 58 65" fill="none" xmlns="http://www.w3.org/2000/svg">
<g clip-path="url(#clip0_56_145)">
<path d="M28.9567 64.9776C28.0987 64.9776 27.2979 64.7443 26.5543 64.3361L18.947 59.7292C17.8031 59.0878 18.375 58.8545 18.7182 58.7379C20.2626 58.2131 20.5486 58.0964 22.1501 57.1634C22.3217 57.0467 22.5505 57.1051 22.722 57.2217L28.5562 60.7789C28.7851 60.8956 29.0711 60.8956 29.2426 60.7789L52.0646 47.3082C52.2934 47.1915 52.4078 46.9583 52.4078 46.6667V19.7836C52.4078 19.492 52.2934 19.2588 52.0646 19.1421L29.2426 5.72977C29.0139 5.61315 28.7278 5.61315 28.5562 5.72977L5.73431 19.1421C5.50552 19.2588 5.39112 19.5504 5.39112 19.7836V46.6667C5.39112 46.9 5.50552 47.1915 5.73431 47.3082L11.9689 50.982C15.3436 52.7314 17.4599 50.6905 17.4599 48.6495V22.1162C17.4599 21.7663 17.7459 21.4165 18.1462 21.4165H21.0634C21.4065 21.4165 21.7497 21.708 21.7497 22.1162V48.6495C21.7497 53.2563 19.2902 55.9388 15.0003 55.9388C13.6848 55.9388 12.6553 55.9388 9.73814 54.4809L3.73239 50.982C2.24524 50.1073 1.33008 48.4745 1.33008 46.7251V19.8419C1.33008 18.0925 2.24524 16.4597 3.73239 15.5849L26.5543 2.11426C27.9843 1.29785 29.929 1.29785 31.359 2.11426L54.1809 15.5849C55.6681 16.4597 56.5832 18.0925 56.5832 19.8419V46.7251C56.5832 48.4745 55.6681 50.1073 54.1809 50.982L31.359 64.4528C30.6726 64.7443 29.8146 64.9776 28.9567 64.9776Z" fill="#5FA04E"/>
<path d="M36.0492 46.4918C26.0396 46.4918 23.9805 41.8266 23.9805 37.8612C23.9805 37.5114 24.2664 37.1615 24.6668 37.1615H27.6411C27.9843 37.1615 28.2703 37.3948 28.2703 37.7446C28.7278 40.8353 30.0434 42.3515 36.1064 42.3515C40.911 42.3515 42.9701 41.2435 42.9701 38.6193C42.9701 37.1032 42.3981 35.9952 34.9052 35.2371C28.6707 34.5956 24.7812 33.1961 24.7812 28.1227C24.7812 23.3992 28.6707 20.6001 35.1912 20.6001C42.5125 20.6001 46.116 23.1659 46.5736 28.7641C46.5736 28.9391 46.5164 29.114 46.402 29.289C46.2876 29.4056 46.116 29.5223 45.9444 29.5223H42.913C42.6269 29.5223 42.341 29.289 42.2838 28.9974C41.5974 25.7901 39.8242 24.7404 35.1341 24.7404C29.8718 24.7404 29.2427 26.6065 29.2427 28.006C29.2427 29.6972 29.9862 30.2221 37.0788 31.1551C44.1141 32.0881 47.4316 33.4293 47.4316 38.4444C47.4316 43.5761 43.2561 46.4918 36.0492 46.4918Z" fill="#5FA04E"/>
</g>
<defs>
<clipPath id="clip0_56_145">
<rect width="56.32" height="64" fill="white" transform="translate(0.697266 0.977539)"/>
</clipPath>
</defs>
</svg>
