<svg width="65" height="65" viewBox="0 0 65 65" fill="none" xmlns="http://www.w3.org/2000/svg">
<g clip-path="url(#clip0_56_150)">
<path d="M64.1943 50.5676C61.8663 51.1596 60.4263 50.5936 59.1343 48.6536L49.9463 35.9416L48.6183 34.1816L37.8883 48.6956C36.6623 50.4416 35.3763 51.2016 33.0883 50.5836L46.8283 32.1396L34.0363 15.4796C36.2363 15.0516 37.7563 15.2696 39.1063 17.2396L48.6363 30.1096L58.2363 17.3096C59.4663 15.5636 60.7883 14.8996 62.9963 15.5436L58.0363 22.1196L51.3163 30.8696C50.5163 31.8696 50.6263 32.5536 51.3623 33.5196L64.1943 50.5676ZM0.210336 31.8316L1.33434 26.3036C4.39434 15.3636 16.9343 10.8176 25.5823 17.5776C30.6363 21.5536 31.8923 27.1776 31.6423 33.4776H3.15434C2.72634 44.8176 10.8883 51.6616 21.2943 48.1696C24.9443 46.9436 27.0943 44.0856 28.1703 40.5096C28.7163 38.7176 29.6203 38.4376 31.3043 38.9496C30.4443 43.4216 28.5043 47.1576 24.4043 49.4956C18.2783 52.9956 9.53434 51.8636 4.93434 46.9996C2.19434 44.1776 1.06234 40.6016 0.554336 36.7776C0.474336 36.1456 0.314336 35.5436 0.194336 34.9376C0.205003 33.9029 0.210336 32.8682 0.210336 31.8336V31.8316ZM3.20634 31.0716H28.9503C28.7823 22.8716 23.6763 17.0476 16.6983 16.9976C9.03834 16.9376 3.53834 22.6236 3.20634 31.0716Z" fill="black"/>
</g>
<defs>
<clipPath id="clip0_56_150">
<rect width="64" height="64" fill="white" transform="translate(0.194336 0.977539)"/>
</clipPath>
</defs>
</svg>
