<svg width="30" height="31" viewBox="0 0 30 31" fill="none" xmlns="http://www.w3.org/2000/svg">
<path d="M27.7793 0.856186H2.21484C0.990234 0.856186 0 1.82298 0 3.0183V28.6882C0 29.8835 0.990234 30.8562 2.21484 30.8562H27.7793C29.0039 30.8562 30 29.8835 30 28.6941V3.0183C30 1.82298 29.0039 0.856186 27.7793 0.856186ZM8.90039 26.4206H4.44727V12.1003H8.90039V26.4206ZM6.67383 10.1492C5.24414 10.1492 4.08984 8.99486 4.08984 7.57103C4.08984 6.1472 5.24414 4.9929 6.67383 4.9929C8.09766 4.9929 9.25195 6.1472 9.25195 7.57103C9.25195 8.989 8.09766 10.1492 6.67383 10.1492ZM25.5645 26.4206H21.1172V19.4597C21.1172 17.8015 21.0879 15.6628 18.8027 15.6628C16.4883 15.6628 16.1367 17.4734 16.1367 19.3425V26.4206H11.6953V12.1003H15.9609V14.0574H16.0195C16.6113 12.9324 18.0645 11.7429 20.2266 11.7429C24.7324 11.7429 25.5645 14.7077 25.5645 18.5632V26.4206V26.4206Z" fill="white"/>
</svg>
