<svg width="31" height="32" viewBox="0 0 31 32" fill="none" xmlns="http://www.w3.org/2000/svg">
<path d="M0 31.8561L2.17904 23.8956C0.834415 21.5654 0.127875 18.924 0.129166 16.2154C0.133041 7.74721 7.02407 0.856186 15.4909 0.856186C19.5997 0.857478 23.4566 2.45785 26.3577 5.36151C29.2575 8.26517 30.854 12.1247 30.8527 16.2296C30.8488 24.699 23.9578 31.59 15.4909 31.59C12.9205 31.5887 10.3876 30.9442 8.14394 29.7197L0 31.8561ZM8.52111 26.9388C10.6859 28.224 12.7526 28.9938 15.4858 28.9951C22.5227 28.9951 28.2551 23.2678 28.259 16.227C28.2616 9.17192 22.5563 3.45243 15.4961 3.44985C8.45394 3.44985 2.72541 9.17708 2.72283 16.2167C2.72154 19.0906 3.5637 21.2425 4.97807 23.4939L3.6877 28.2059L8.52111 26.9388ZM23.2293 19.8811C23.1337 19.7209 22.878 19.6254 22.493 19.4329C22.1094 19.2404 20.2223 18.3117 19.8697 18.1839C19.5183 18.056 19.2626 17.9914 19.0055 18.3763C18.7498 18.7599 18.0135 19.6254 17.7901 19.8811C17.5666 20.1369 17.3419 20.1691 16.9583 19.9767C16.5746 19.7842 15.3372 19.3799 13.8712 18.0715C12.7306 17.0536 11.9595 15.7969 11.7361 15.4119C11.5126 15.0283 11.7128 14.8204 11.904 14.6292C12.0771 14.4574 12.2876 14.181 12.4801 13.9562C12.6751 13.7341 12.7384 13.5739 12.8676 13.3169C12.9954 13.0611 12.9321 12.8364 12.8353 12.6439C12.7384 12.4527 11.9711 10.563 11.6521 9.7945C11.3395 9.04663 11.0231 9.14738 10.788 9.13575L10.0517 9.12283C9.79598 9.12283 9.38006 9.21842 9.02873 9.60333C8.6774 9.98825 7.6854 10.9157 7.6854 12.8054C7.6854 14.6951 9.06102 16.5202 9.25219 16.7759C9.44464 17.0317 11.9582 20.9093 15.8087 22.5716C16.7245 22.9669 17.44 23.2033 17.9967 23.3802C18.9164 23.6721 19.7534 23.6308 20.4147 23.5326C21.1523 23.4228 22.6855 22.6039 23.0058 21.7075C23.3262 20.8098 23.3262 20.0413 23.2293 19.8811Z" fill="#25D366"/>
</svg>
